<svg version="1.1" id="Layer_1" xmlns="http://www.w3.org/2000/svg" xmlns:xlink="http://www.w3.org/1999/xlink" x="0px" y="0px"
	 width="100%" viewBox="0 0 500 500" enable-background="new 0 0 500 500" xml:space="preserve">
<path fill="#000000" opacity="1.000000" stroke="none" 
	d="
M337.000000,501.000000 
	C224.666687,501.000000 112.833389,501.000000 1.000060,501.000000 
	C1.000040,334.333405 1.000040,167.666794 1.000020,1.000149 
	C167.666565,1.000100 334.333130,1.000100 500.999756,1.000050 
	C500.999847,167.666519 500.999847,334.333038 500.999939,500.999786 
	C446.500000,501.000000 392.000000,501.000000 337.000000,501.000000 
M195.392227,447.138580 
	C219.035507,452.245850 242.902740,453.469818 266.923584,450.841858 
	C290.229340,448.292145 312.023926,441.406311 331.583282,428.001740 
	C359.952423,408.559540 376.586182,380.775360 386.952026,348.996643 
	C401.243225,305.183960 405.232117,260.136353 399.849060,214.377640 
	C396.234406,183.651199 387.464355,154.632874 370.211517,128.484741 
	C352.980499,102.369720 329.588593,84.210182 300.179230,74.152847 
	C268.863007,63.443401 236.646774,63.152206 204.462646,69.139404 
	C137.444351,81.606781 86.658203,140.529068 96.051926,212.478119 
	C101.340881,252.987686 122.595482,282.628296 159.697510,299.952087 
	C185.084412,311.805817 212.283325,314.194031 239.815048,310.933685 
	C280.195404,306.151794 309.319092,284.639893 328.336823,249.057251 
	C330.706573,244.623398 332.383392,239.819214 334.789490,234.240112 
	C335.261444,267.591736 333.310638,299.535950 321.997345,330.182587 
	C314.577515,350.282104 303.394348,367.621124 284.867249,379.436157 
	C266.963501,390.853668 247.213165,393.000305 226.785614,390.686310 
	C202.337616,387.916901 182.416962,377.265564 169.594955,355.447357 
	C168.199432,353.072723 166.787811,352.917450 164.325150,353.499237 
	C154.294601,355.868774 144.195160,357.944977 134.133163,360.183502 
	C123.362030,362.579742 112.604469,365.036957 101.468140,367.551758 
	C106.830360,381.596130 113.865700,393.977173 123.162842,404.946503 
	C142.045212,427.225189 166.610168,440.045868 195.392227,447.138580 
z"/>
<path fill="#FEFEFE" opacity="1.000000" stroke="none" 
	d="
M194.977417,447.084503 
	C166.610168,440.045868 142.045212,427.225189 123.162842,404.946503 
	C113.865700,393.977173 106.830360,381.596130 101.468140,367.551758 
	C112.604469,365.036957 123.362030,362.579742 134.133163,360.183502 
	C144.195160,357.944977 154.294601,355.868774 164.325150,353.499237 
	C166.787811,352.917450 168.199432,353.072723 169.594955,355.447357 
	C182.416962,377.265564 202.337616,387.916901 226.785614,390.686310 
	C247.213165,393.000305 266.963501,390.853668 284.867249,379.436157 
	C303.394348,367.621124 314.577515,350.282104 321.997345,330.182587 
	C333.310638,299.535950 335.261444,267.591736 334.789490,234.240112 
	C332.383392,239.819214 330.706573,244.623398 328.336823,249.057251 
	C309.319092,284.639893 280.195404,306.151794 239.815048,310.933685 
	C212.283325,314.194031 185.084412,311.805817 159.697510,299.952087 
	C122.595482,282.628296 101.340881,252.987686 96.051926,212.478119 
	C86.658203,140.529068 137.444351,81.606781 204.462646,69.139404 
	C236.646774,63.152206 268.863007,63.443401 300.179230,74.152847 
	C329.588593,84.210182 352.980499,102.369720 370.211517,128.484741 
	C387.464355,154.632874 396.234406,183.651199 399.849060,214.377640 
	C405.232117,260.136353 401.243225,305.183960 386.952026,348.996643 
	C376.586182,380.775360 359.952423,408.559540 331.583282,428.001740 
	C312.023926,441.406311 290.229340,448.292145 266.923584,450.841858 
	C242.902740,453.469818 219.035507,452.245850 194.977417,447.084503 
M278.732697,127.731178 
	C254.563522,117.906715 229.979797,117.904716 206.366440,128.063705 
	C177.536636,140.466934 162.977386,163.959015 161.893234,195.086456 
	C161.008484,220.488968 169.793381,242.178177 191.000793,257.431610 
	C211.390656,272.097015 234.565552,274.078766 258.246002,269.298035 
	C294.013489,262.077179 314.435699,238.589310 323.342896,204.208801 
	C324.863342,198.340134 326.560760,191.734360 325.349152,186.074326 
	C319.638428,159.396652 305.464172,138.882965 278.732697,127.731178 
z"/>
<path fill="#010101" opacity="1.000000" stroke="none" 
	d="
M279.091919,127.864059 
	C305.464172,138.882965 319.638428,159.396652 325.349152,186.074326 
	C326.560760,191.734360 324.863342,198.340134 323.342896,204.208801 
	C314.435699,238.589310 294.013489,262.077179 258.246002,269.298035 
	C234.565552,274.078766 211.390656,272.097015 191.000793,257.431610 
	C169.793381,242.178177 161.008484,220.488968 161.893234,195.086456 
	C162.977386,163.959015 177.536636,140.466934 206.366440,128.063705 
	C229.979797,117.904716 254.563522,117.906715 279.091919,127.864059 
z"/>
</svg>